<svg width="130" height="26" viewBox="0 0 130 26" fill="none" xmlns="http://www.w3.org/2000/svg">
<path d="M30.0664 13.0198C30.0664 17.3183 27.1658 20.1349 23.5908 20.1349C21.9678 20.1349 20.6475 19.5785 19.7169 18.7336C19.5952 18.6234 19.4024 18.7042 19.4024 18.867V25.8153C19.4024 25.9179 19.3182 25.9999 19.216 25.9999H15.8973C15.7938 25.9999 15.7109 25.9166 15.7109 25.8153V13.2506C15.7109 8.80721 18.8756 5.87402 22.9191 5.87402C26.9626 5.87402 30.0703 8.95336 30.0703 13.0173L30.0664 13.0198ZM26.4021 13.0198C26.4021 10.6674 24.9072 9.07002 22.9152 9.07002C20.9232 9.07002 19.37 10.6379 19.37 13.0198C19.37 15.6633 21.186 16.9401 22.945 16.9401C24.937 16.9401 26.4034 15.3428 26.4034 13.0198H26.4021Z" fill="#272727"/>
<path d="M45.5156 13.012C45.5156 17.3105 42.615 20.127 39.0401 20.127C37.417 20.127 36.0967 19.5707 35.1661 18.7258C35.0445 18.6156 34.8516 18.6963 34.8516 18.8592V25.8075C34.8516 25.9101 34.7675 25.9921 34.6652 25.9921H31.3465C31.243 25.9921 31.1602 25.9088 31.1602 25.8075V13.2428C31.1602 8.7994 34.3248 5.86621 38.3683 5.86621C42.4118 5.86621 45.5195 8.94555 45.5195 13.0094L45.5156 13.012ZM41.8514 13.012C41.8514 10.6596 40.3564 9.06221 38.3644 9.06221C36.3724 9.06221 34.8192 10.6301 34.8192 13.012C34.8192 15.6555 36.6352 16.9323 38.3942 16.9323C40.3862 16.9323 41.8527 15.335 41.8527 13.012H41.8514Z" fill="#272727"/>
<path d="M75.3921 11.8199V19.6221C75.3921 19.7247 75.308 19.8067 75.2057 19.8067H71.8586C71.7551 19.8067 71.6722 19.7234 71.6722 19.6221V12.4007C71.6722 9.96233 70.3533 9.11878 68.9774 9.11878C67.1615 9.11878 65.959 10.6008 65.959 12.7212V19.6221C65.959 19.7247 65.8749 19.8067 65.7726 19.8067H62.454C62.3504 19.8067 62.2676 19.7234 62.2676 19.6221V0.184607C62.2676 0.0820475 62.3517 0 62.454 0H65.7726C65.8762 0 65.959 0.0833295 65.959 0.184607V7.52783C65.959 7.7009 66.1791 7.7791 66.2891 7.64449C67.2042 6.5266 68.6254 5.86509 70.2083 5.86509C72.9924 5.86509 75.3934 7.69449 75.3934 11.8199H75.3921Z" fill="#272727"/>
<path d="M92.1924 11.7621C92.1924 8.48018 94.1261 5.86621 97.9936 5.86621C98.6408 5.86621 99.1391 5.91492 99.6943 6.03671C99.7798 6.05594 99.8406 6.13158 99.8406 6.21747V9.18528C99.8406 9.29168 99.75 9.37501 99.6439 9.36988C99.2892 9.35193 98.9941 9.35194 98.8453 9.35194C96.795 9.35194 95.9162 10.2814 95.9162 12.1685V19.6399C95.9162 19.7424 95.832 19.8245 95.7298 19.8245H92.3814C92.2791 19.8245 92.1963 19.7424 92.1963 19.6412V11.7621H92.1924Z" fill="#272727"/>
<path d="M114.107 13.1838V18.1489C114.107 23.6384 110.707 25.8447 107.193 25.8447C103.679 25.8447 101.015 23.8538 100.381 20.8693C100.356 20.7552 100.447 20.6475 100.564 20.6475H103.783C103.861 20.6475 103.928 20.6962 103.957 20.7668C104.427 21.9513 105.549 22.7679 107.195 22.7679C109.101 22.7679 110.74 21.7231 110.74 18.4989V18.2784C110.74 18.1066 110.523 18.0271 110.412 18.1592C109.475 19.2848 108.034 19.9514 106.316 19.9514C102.8 19.9514 99.8408 17.1644 99.8408 12.9518C99.8408 8.73914 102.917 5.86621 107.079 5.86621C111.24 5.86621 114.111 8.7994 114.111 13.1838H114.11H114.107ZM110.649 12.9518C110.649 10.5993 109.067 9.05964 107.074 9.05964C105.08 9.05964 103.499 10.657 103.499 12.9518C103.499 15.2465 105.022 16.8439 107.044 16.8439C108.802 16.8439 110.647 15.5952 110.647 12.9518H110.649Z" fill="#272727"/>
<path fill-rule="evenodd" clip-rule="evenodd" d="M46.6084 13.0261C46.6084 17.0887 49.5905 20.2155 53.7376 20.2155C57.5572 20.2155 60.3879 17.5631 60.8111 13.9709C60.8241 13.862 60.7361 13.7658 60.6248 13.7658H57.4213C57.3307 13.7658 57.2543 13.8312 57.2388 13.9209C56.9061 15.7657 55.5354 16.9734 53.7376 16.9734C51.6641 16.9734 50.1588 15.3657 50.1588 13.0274C50.1588 10.689 51.6641 9.08143 53.7376 9.08143C55.5419 9.08143 56.9152 10.3198 57.2427 12.1621C57.2582 12.2505 57.3345 12.3172 57.4252 12.3172H60.6286C60.7399 12.3172 60.828 12.221 60.815 12.1121C60.4034 8.50839 57.5675 5.86621 53.7376 5.86621C49.5905 5.86621 46.6084 8.96349 46.6084 13.0261Z" fill="#272727"/>
<path fill-rule="evenodd" clip-rule="evenodd" d="M7.1292 20.2253C2.98215 20.2253 0 17.0985 0 13.0359C0 8.97326 2.98215 5.87598 7.1292 5.87598C11.2762 5.87598 14.2584 8.97326 14.2584 13.0359C14.2584 13.0872 14.2584 13.1384 14.2571 13.1897V19.6497C14.2571 19.7522 14.173 19.8343 14.0707 19.8343H10.8957C10.7922 19.8343 10.7093 19.7509 10.7093 19.6497V12.991C10.6899 10.7052 9.19107 9.08992 7.13049 9.08992C5.06991 9.08992 3.55165 10.727 3.55165 13.0359C3.55165 15.3447 5.05696 16.9818 7.13049 16.9818C7.81778 16.9818 8.44294 16.8049 8.97103 16.4844C9.09529 16.4088 9.25579 16.4947 9.25579 16.6395V19.7894C9.25579 19.8727 9.20013 19.9471 9.11859 19.9689C8.49472 20.1355 7.82943 20.224 7.13178 20.224L7.1292 20.2253Z" fill="#272727"/>
<path fill-rule="evenodd" clip-rule="evenodd" d="M83.6116 20.2155C79.4646 20.2155 76.4824 17.0887 76.4824 13.0261C76.4824 8.96349 79.4646 5.86621 83.6116 5.86621C87.7587 5.86621 90.7408 8.96349 90.7408 13.0261C90.7408 13.0607 90.7408 13.0953 90.7408 13.13V19.6399C90.7408 19.7424 90.6567 19.8245 90.5544 19.8245H87.3794C87.2759 19.8245 87.193 19.7412 87.193 19.6399V19.3181V12.9812C87.1736 10.6955 85.6748 9.08015 83.6142 9.08015C81.5536 9.08015 80.0354 10.7172 80.0354 13.0261C80.0354 15.335 81.5407 16.9721 83.6142 16.9721C84.3015 16.9721 84.9267 16.7952 85.4548 16.4747C85.579 16.399 85.7395 16.4849 85.7395 16.6298V19.7796C85.7395 19.8629 85.6839 19.9373 85.6023 19.9591C84.9784 20.1258 84.3131 20.2142 83.6155 20.2142L83.6116 20.2155Z" fill="#272727"/>
<path d="M129.128 14.2203H118.959C118.833 14.2203 118.745 14.3408 118.78 14.4601C119.275 16.1651 120.555 17.0689 122.266 17.0689C123.828 17.0689 124.732 16.6869 125.292 15.7908C125.326 15.7356 125.385 15.701 125.45 15.701H128.524C128.65 15.701 128.741 15.8228 128.704 15.9407C127.776 18.8009 125.064 20.1213 122.353 20.1213C118.07 20.1213 115.196 17.0971 115.196 12.9704C115.196 8.84367 118.131 5.84766 122.265 5.84766C126.399 5.84766 129.187 8.90007 129.187 12.9704C129.187 13.4934 129.187 13.6973 129.128 14.2203ZM118.933 11.6615H125.472C125.594 11.6615 125.68 11.5499 125.655 11.432C125.326 9.95258 123.968 8.90007 122.266 8.90007C120.564 8.90007 119.236 9.89746 118.756 11.4179C118.718 11.5384 118.806 11.6615 118.934 11.6615H118.933Z" fill="#272727"/>
</svg>
