<svg width="135" height="33" viewBox="0 0 135 33" fill="#160923" xmlns="http://www.w3.org/2000/svg">
  <path d="M113.611 6.10862H113.549C110.382 6.10862 108.442 7.06543 107.258 9.21027L107.147 9.4116L107.143 9.18237L107.103 6.52722H103.184V26.0561H107.143V16.4541C107.143 12.2143 109.238 9.87804 113.043 9.87804C113.406 9.87804 113.721 9.89399 114.026 9.92987V6.11858C113.882 6.10862 113.747 6.10862 113.609 6.10862H113.611Z" fill="#160923"/>
  <path d="M131.38 6.48542V9.12462L131.274 9.00901C129.558 7.13725 127.076 6.06483 124.467 6.06483C121.858 6.06483 119.593 7.00968 117.863 8.72396C115.981 10.5897 114.987 13.1851 114.987 16.2329C114.987 19.2808 115.981 21.8741 117.863 23.7419C119.593 25.4582 121.94 26.401 124.467 26.401C126.995 26.401 129.668 25.2728 131.274 23.4588L131.382 23.3372V25.9804H135.002V6.48542H131.382H131.38ZM129.448 21.1864C128.296 22.3405 126.71 23.0023 125.097 23.0023C121.934 23.0023 118.73 20.6781 118.73 16.2349C118.73 14.2156 119.412 12.4874 120.704 11.2336C121.862 10.1093 123.462 9.46549 125.097 9.46549C126.732 9.46549 128.298 10.1273 129.448 11.2814C130.694 12.5293 131.38 14.2874 131.38 16.2349C131.38 18.1824 130.694 19.9406 129.448 21.1884V21.1864Z" fill="#160923"/>
  <path d="M90.3368 6.06483C84.5322 6.06483 80.4777 10.2469 80.4777 16.2329C80.4777 19.1352 81.4724 21.7465 83.2764 23.5844C85.0604 25.4003 87.568 26.401 90.3368 26.401C94.489 26.401 97.9454 23.9831 99.1654 20.2356H95.3361C94.463 22.0714 92.7807 23.0023 90.3368 23.0023C87.2471 23.0023 84.897 20.9412 84.3488 17.7538L84.3368 17.6821H99.6159C99.6916 17.1319 99.6916 16.807 99.6916 16.2349C99.6916 13.4562 98.7129 10.8788 96.9388 8.97711C95.1866 7.10137 92.8405 6.06682 90.3348 6.06682L90.3368 6.06483ZM95.7607 14.6183H84.3767L84.3906 14.5465C84.6837 13.0276 85.3913 11.7479 86.4398 10.8489C87.4923 9.94389 88.8398 9.46549 90.3368 9.46549C91.8338 9.46549 93.1016 10.0077 94.1162 10.9924C95.089 11.9352 95.6949 13.199 95.8205 14.5525L95.8265 14.6183H95.7587H95.7607Z" fill="#160923"/>
  <path d="M50.0991 9.46349C51.4387 9.46349 52.6127 9.83824 53.5855 10.5778C54.6141 11.3572 55.3636 12.5073 55.8141 13.9944H59.5676C59.1509 11.6462 58.0367 9.65685 56.3443 8.23758C54.648 6.81632 52.4872 6.06483 50.0991 6.06483C47.3064 6.06483 44.7629 7.07147 42.937 8.89738C41.0872 10.7472 40.0706 13.3505 40.0706 16.2329C40.0706 19.1153 41.0892 21.7186 42.937 23.5685C44.7629 25.3944 47.3064 26.401 50.0991 26.401C52.4732 26.401 54.624 25.6595 56.3164 24.2601C57.9868 22.8768 59.0971 20.9472 59.5277 18.6748H55.7583C54.8254 21.4256 52.7662 23.0023 50.0991 23.0023C48.3589 23.0023 46.7682 22.3286 45.6201 21.1067C44.4579 19.8708 43.8161 18.1406 43.8161 16.2329C43.8161 14.3253 44.4559 12.595 45.6201 11.3592C46.7702 10.1372 48.3609 9.46349 50.0991 9.46349Z" fill="#160923"/>
  <path d="M70.0941 19.3426L70.0343 19.4841L69.9805 19.3406L65.0748 6.48145H60.7333L68.007 24.5253L68.017 24.5512L68.005 24.5751L64.3946 32.4209H68.752L79.8675 6.48145H75.506L70.0941 19.3426Z" fill="#160923"/>
  <g clip-path="url(#clip0_3202_9177)">
    <path d="M11.0273 32.3973C12.0482 32.3973 13.0137 31.9943 13.747 31.2626L14.8563 30.1532C15.185 29.823 15.6449 29.6333 16.1206 29.6333C16.5962 29.6333 17.0561 29.823 17.3864 30.1532L18.4958 31.2626C19.2274 31.9943 20.193 32.3973 21.2154 32.3973C23.3299 32.3973 25.0492 30.67 25.0492 28.5477V26.9737C25.0492 25.9797 25.8536 25.1722 26.8429 25.1722H28.4089C30.5234 25.1722 32.2427 23.4449 32.2427 21.3226C32.2427 20.297 31.8429 19.3251 31.116 18.5871L30.0066 17.4777C29.6716 17.1332 29.4867 16.6813 29.4867 16.204C29.4867 15.7268 29.6668 15.2701 30.0066 14.9319L31.1381 13.832C31.865 13.0972 32.2648 12.1269 32.2648 11.0965V10.9875C32.2648 8.91413 30.585 7.22638 28.5195 7.22638H28.431C26.3056 7.22638 24.5751 8.95363 24.5751 11.076C24.5751 12.1016 24.9749 13.0735 25.7019 13.8115L26.8112 14.9208C27.1463 15.2558 27.3312 15.7078 27.3312 16.1945C27.3312 16.6813 27.1463 17.1237 26.8128 17.4682L25.7019 18.5792C24.9749 19.314 24.5751 20.2843 24.5751 21.3147V22.8886C24.5751 23.8811 23.7708 24.6886 22.7815 24.6886H21.2154C20.1946 24.6886 19.229 25.0916 18.4958 25.8232L17.3864 26.9216C17.0514 27.255 16.601 27.4383 16.1206 27.4383C15.6402 27.4383 15.1914 27.255 14.8563 26.9216L13.7454 25.8122C13.0137 25.0805 12.0482 24.6775 11.0257 24.6775H9.45964C8.47038 24.6775 7.66443 23.87 7.66443 22.876V21.302C7.66443 20.2748 7.26462 19.303 6.53768 18.5665L5.42832 17.4572C5.0933 17.1127 4.9084 16.6607 4.9084 16.1835C4.9084 15.7062 5.0933 15.2527 5.42674 14.9098L6.5361 13.8004C7.26304 13.0656 7.66285 12.0953 7.66285 11.0649V9.49093C7.66443 8.49851 8.47038 7.69098 9.45806 7.69098H11.0241C13.1322 7.69098 14.8516 5.96846 14.8579 3.85087C14.8516 1.72854 13.1322 0.00128174 11.0241 0.00128174C8.91602 0.00128174 7.19034 1.72854 7.18876 3.85087V5.42484C7.18876 6.41885 6.38439 7.22638 5.39513 7.22638H3.82906C1.71779 7.22638 -0.00156403 8.95837 -0.00156403 11.0886C-0.00156403 12.1142 0.39825 13.0861 1.12518 13.8241L2.23455 14.9335C2.56799 15.278 2.7513 15.7299 2.7513 16.2056C2.7513 16.6813 2.56799 17.1364 2.23455 17.4777L1.12518 18.5887C0.39825 19.3251 -0.00156403 20.297 -0.00156403 21.3242C-0.00156403 23.4465 1.71779 25.1737 3.83222 25.1737H5.39829C6.38756 25.1737 7.19192 25.9813 7.19192 26.9753V28.5493C7.19192 30.6716 8.91128 32.3988 11.0257 32.3988L11.0273 32.3973Z" fill="#160923"/>
    <path d="M21.1236 0.110443C19.0044 0.110443 17.2787 1.84244 17.2787 3.9711C17.2787 6.09975 19.0028 7.83175 21.1236 7.83175C23.2443 7.83175 24.9684 6.09975 24.9684 3.9711C24.9684 1.84244 23.2428 0.110443 21.1236 0.110443Z" fill="#160923"/>
  </g>
  <defs>
    <clipPath id="clip0_3202_9177">
      <rect width="32.2632" height="32.3976" fill="#160923"/>
    </clipPath>
  </defs>
</svg>