<svg width="114" height="24" viewBox="0 0 114 24" fill="none" xmlns="http://www.w3.org/2000/svg">
<path d="M70.7813 18.8425H60.5418L58.2655 23.7678H54.3447L65.6777 0L77.0108 23.7678H73.0576L70.7813 18.8425ZM62 15.7156H69.3231L65.6777 7.81729L62 15.7156Z" fill="#0E0F11"/>
<path d="M101.112 0.8508H114.001V4.09923H104.887V10.1748H113.879V13.4233H104.887V20.5034H114.001V23.7518H101.112V0.8508Z" fill="#0E0F11"/>
<path d="M47.7462 0.121254C47.7462 0.121254 44.8218 3.20767 40.7066 6.34268C35.7894 10.0934 29.9406 12.0376 24.1161 12.0862C18.2916 12.0457 12.4428 10.0934 7.52564 6.34268C3.41043 3.20767 0.486041 0.121254 0.486041 0.121254H0V23.7675H3.71017V8.01145L5.16021 9.21037C10.6283 13.7306 17.3762 15.9908 24.1161 15.9827C30.856 15.9989 37.6039 13.7306 43.072 9.21037L44.522 8.01145V23.7675H48.2322V0.121254H47.7462Z" fill="#0E0F11"/>
<path d="M88.9013 4.11557V23.7763H85.1021V4.11557H79.2695V0.867142H94.7339V4.11557H88.9013Z" fill="#0E0F11"/>
</svg>
