<?xml version="1.0" encoding="UTF-8"?> <svg xmlns="http://www.w3.org/2000/svg" width="193" height="37" viewBox="0 0 193 37" fill="none"><path d="M51.7385 25.5619V21.037C54.1204 21.9171 57.0344 22.4328 59.4163 22.4328C62.8318 22.4328 64.0548 21.855 64.0548 20.3377C64.0548 18.9716 63.0519 18.545 60.6087 18.1508L58.3828 17.7863C54.7779 17.2086 51.8026 15.9936 51.8026 11.7737C51.8026 7.55385 54.7166 5.54785 60.5781 5.54785C63.2413 5.54785 65.8433 5.85024 68.2252 6.5495V11.1042C66.1888 10.1943 63.1494 9.64624 60.8929 9.64624C57.7281 9.64624 56.6946 10.2834 56.6946 11.7116C56.6946 13.1399 57.8535 13.4125 59.8899 13.777L62.0824 14.1712C65.938 14.8084 68.9468 16.0854 68.9468 20.2459C68.9468 24.4064 66.0941 26.5339 59.7005 26.5339C56.8478 26.5339 54.3099 26.2315 51.7413 25.5619H51.7385Z" fill="#010005"></path><path d="M70.9805 18.7287C70.9805 13.6881 73.6744 10.8613 79.0985 10.8613C81.1043 10.8613 82.6393 11.1961 84.0489 11.5282V15.5672C82.5139 14.93 81.2296 14.6249 79.7253 14.6249C76.9366 14.6249 75.7777 15.6266 75.7777 18.726C75.7777 21.8255 76.906 22.8271 79.7253 22.8271C81.2296 22.8271 82.578 22.4923 84.113 21.8552V25.8645C82.7034 26.2289 81.0736 26.5637 79.0985 26.5637C73.7078 26.5637 70.9805 23.8909 70.9805 18.7287Z" fill="#010005"></path><path d="M85.9628 21.9499C85.9628 18.6993 88.2835 17.3034 92.5124 17.3034H96.2092V16.7257C96.2092 14.995 95.237 14.3876 92.9804 14.3876C91.164 14.3876 88.7821 14.8736 86.963 15.7537V11.9874C89.0635 11.2287 91.7268 10.8643 93.7939 10.8643C99.4353 10.8643 100.876 12.9593 100.876 16.7257V26.2616H96.9893L96.5519 24.62C95.2676 25.8971 93.6379 26.564 91.568 26.564C88.2138 26.564 85.9573 25.1357 85.9573 21.9472L85.9628 21.9499ZM96.212 22.4359V20.0978H93.0166C91.3256 20.0978 90.4787 20.5217 90.4787 21.7366C90.4787 22.7679 91.3563 23.316 93.0166 23.316C94.209 23.316 95.3373 22.9812 96.212 22.4359Z" fill="#010005"></path><path d="M104.266 5H108.935V26.2614H104.266V5Z" fill="#010005"></path><path d="M111.568 18.791C111.568 13.6289 114.39 10.8643 119.747 10.8643C125.104 10.8643 127.394 13.6586 127.394 18.5184C127.394 18.9422 127.363 19.4282 127.299 19.9466H116.362C116.674 22.3468 117.992 23.0136 121.095 23.0136C123.352 23.0136 124.982 22.6195 126.862 21.7987V25.5353C124.951 26.2346 122.976 26.5666 120.123 26.5666C114.671 26.5666 111.568 23.9856 111.568 18.791ZM122.756 17.1792C122.756 15.265 121.878 14.2634 119.652 14.2634C117.772 14.2634 116.674 15.022 116.393 17.1792H122.756Z" fill="#010005"></path><path d="M129.308 16.0852C129.308 9.31123 133.255 5.54492 139.869 5.54492C146.483 5.54492 150.4 9.31123 150.4 16.0852C150.4 22.8591 146.168 26.5633 139.869 26.5633C133.57 26.5633 129.308 23.0697 129.308 16.0852ZM145.48 16.0852C145.48 11.7735 143.443 9.64601 139.869 9.64601C136.295 9.64601 134.228 11.7735 134.228 16.0852C134.228 20.3969 136.264 22.4623 139.869 22.4623C143.474 22.4623 145.48 20.3348 145.48 16.0852Z" fill="#010005"></path><path d="M153.191 11.1664H157.077L157.484 12.7755C158.863 11.5903 160.618 10.8613 162.719 10.8613C167.076 10.8613 169.583 13.4127 169.583 18.5748C169.583 23.737 166.951 26.5637 162.217 26.5637C160.588 26.5637 159.083 26.1398 157.86 25.5V32.3333H153.191V11.1664ZM161.025 22.738C163.471 22.738 164.722 21.6446 164.722 18.6369C164.722 15.6293 163.532 14.6897 161.401 14.6897C160.053 14.6897 158.955 15.1136 157.86 15.7535V22.0415C158.833 22.4977 159.866 22.7407 161.025 22.7407V22.738Z" fill="#010005"></path><path d="M171.338 25.6833V21.8873C173.659 22.6163 175.35 22.9187 177.701 22.9187C179.676 22.9187 180.395 22.5245 180.395 21.6416C180.395 20.8533 179.863 20.5779 177.983 20.2755L175.915 19.9407C173.313 19.4845 171.308 18.7258 171.308 15.4752C171.308 12.7726 173.439 10.8584 178.297 10.8584C180.239 10.8584 182.184 11.1608 184.125 11.8007V15.5967C182.058 14.8974 180.459 14.5329 178.359 14.5329C176.573 14.5329 175.913 14.8974 175.913 15.7181C175.913 16.5389 176.634 16.7819 178.2 17.0546L180.3 17.4191C183.12 17.905 185 18.7258 185 21.9143C185 24.6169 182.774 26.5608 177.793 26.5608C175.286 26.5608 173.531 26.3178 171.338 25.6806V25.6833Z" fill="#010005"></path><path d="M16.3696 19.1336C16.3696 13.0941 16.4058 7.05717 16.4866 1.01758C16.4086 7.05717 16.3696 13.0968 16.3696 19.1336Z" fill="#FF4F8F"></path><path d="M32.678 10.6399C32.6697 10.0648 32.3437 9.53026 31.8228 9.23597C26.9141 6.45241 22.0444 3.65536 17.2973 0.960897C17.0466 0.817804 16.7652 0.750308 16.4866 0.753008C16.4086 6.7926 16.3696 12.8322 16.3696 18.8691C21.7519 21.8767 27.1398 24.9087 32.4273 27.811C32.575 27.568 32.6585 27.2926 32.6641 27.0038C32.7588 21.55 32.7616 16.0963 32.678 10.6426V10.6399Z" fill="#B6B6FD"></path><path d="M15.6648 0.976788C10.8481 3.77114 5.92544 6.6195 0.977756 9.40576C0.454014 9.70004 0.119711 10.2292 0.105782 10.7908C-0.0418684 16.1365 -0.0335109 21.4822 0.130855 26.828C0.139212 27.1087 0.22836 27.3814 0.378796 27.6217C5.62457 24.8382 10.9901 21.8683 16.3696 18.8661C16.3696 12.8265 16.4058 6.78959 16.4866 0.75C16.2053 0.7527 15.9211 0.828296 15.6676 0.976788H15.6648Z" fill="#FF4F8F"></path><path d="M16.3697 18.8667C10.9902 21.869 5.62189 24.8415 0.378906 27.6224C0.529343 27.8627 0.743854 28.0679 1.00572 28.2163C5.95341 31.0134 10.8732 33.8699 15.6788 36.6669C16.1859 36.9639 16.8071 36.9693 17.3058 36.6858C22.039 33.994 26.9003 31.1943 31.809 28.4026C32.068 28.2541 32.2798 28.0463 32.4274 27.8033C27.1399 24.9009 21.752 21.869 16.3697 18.8613V18.8667Z" fill="#3E4CE0"></path><path d="M41.4535 5.91758C41.4284 5.35601 41.0885 4.82144 40.5648 4.52175C38.1021 3.10162 35.6533 1.6707 33.2269 0.24517C32.9706 0.0939782 32.6864 0.0129824 32.405 0.00488281C32.5248 3.25822 32.614 6.51155 32.6697 9.76758C35.6032 11.428 38.5478 13.0776 41.4897 14.6948C41.6318 14.4599 41.707 14.19 41.7014 13.9092C41.6569 11.2444 41.5761 8.58234 41.4563 5.91758H41.4535Z" fill="#B6B6FD"></path><path d="M32.4052 0.00269986C32.1238 -0.00539972 31.848 0.0566971 31.6001 0.19439C29.2739 1.48222 26.9115 2.80516 24.524 4.14969C24.017 4.43587 23.705 4.97044 23.7105 5.54821C23.7272 8.29127 23.7384 11.0316 23.744 13.7747C23.744 14.0636 23.8247 14.3444 23.9696 14.5873C26.8864 12.9593 29.792 11.3421 32.6698 9.7627C32.6141 6.50936 32.525 3.25603 32.4052 0V0.00269986Z" fill="#FF4F8F"></path><path d="M32.667 9.76465C29.7892 11.3441 26.8836 12.9586 23.9668 14.5893C24.1117 14.8323 24.3206 15.0375 24.5797 15.1833C27.0201 16.5494 29.4633 17.9155 31.9009 19.2655C32.4191 19.5516 33.0571 19.5516 33.5752 19.2655C36.0184 17.9128 38.456 16.5764 40.8797 15.2697C41.136 15.132 41.345 14.9322 41.4871 14.6973C38.5452 13.0801 35.6005 11.4278 32.667 9.77005V9.76465Z" fill="#3E4CE0"></path><path d="M32.667 9.76465C35.6005 11.4251 38.5452 13.0747 41.487 14.6919C38.5452 13.072 35.6005 11.4224 32.667 9.76465Z" fill="#3E4CE0"></path></svg> 